<svg width="61" height="61" viewBox="0 0 61 61" fill="none" xmlns="http://www.w3.org/2000/svg">
<g clip-path="url(#clip0_6_384)">
<path d="M23.7328 0.190601C22.4223 0.53611 21.2309 1.56072 20.6352 2.83553C20.3492 3.43123 20.3135 3.66951 20.3016 4.81326L20.2896 6.09998L13.177 13.2127L6.07617 20.3135H4.80137C3.65762 20.3135 3.44316 20.3492 2.83555 20.6351C2.0373 21.0045 1.08418 21.8623 0.655273 22.5771C0.285937 23.2086 0 24.2928 0 25.0314C0 25.7701 0.38125 26.9853 0.82207 27.6406C1.02461 27.9385 3.63379 30.6191 6.63613 33.6096C12.5693 39.5189 12.6289 39.5666 14.142 39.7691C15.81 39.9836 17.2635 39.4594 18.3834 38.2441C19.3127 37.2433 19.5867 36.5047 19.5867 34.9439L19.5986 33.7287L20.242 33.0734L20.8973 32.4181L21.0879 32.7398C21.4334 33.2998 22.3865 34.0504 23.018 34.2648C24.0545 34.6103 25.4604 34.3601 26.3896 33.6691C26.616 33.5023 27.1402 34.0742 37.6961 46.2027C43.7842 53.1963 49.0383 59.1414 49.3719 59.4035C52.2193 61.7029 56.2463 61.4765 58.8555 58.8555C61.6434 56.0676 61.7148 51.8023 58.9984 48.9787C58.5576 48.526 54.9834 45.3449 51.0518 41.9256C32.8352 26.0799 33.4785 26.6517 33.6691 26.3896C34.3959 25.3769 34.6223 24.1021 34.2648 23.0179C34.0504 22.3865 33.2998 21.4334 32.7398 21.0879L32.4182 20.8972L33.0734 20.242L33.7287 19.5986H34.8844C36.4094 19.5986 37.2791 19.2888 38.2561 18.3715C39.8287 16.9179 40.2576 14.7138 39.3641 12.7719C39.09 12.1881 38.2561 11.2945 33.4309 6.46931C29.5111 2.54959 27.6525 0.774391 27.2832 0.583767C26.1037 -2.28882e-05 24.9123 -0.131077 23.7328 0.190601ZM25.9131 2.60916C26.2348 2.76404 28.1768 4.63455 31.8344 8.29217C37.0408 13.5344 37.2672 13.7845 37.3863 14.3326C37.7557 16.1435 36.2068 17.6209 34.4197 17.1562C33.9432 17.0371 33.3475 16.4771 28.4984 11.64C25.5318 8.67342 22.9941 6.05232 22.8631 5.81404C22.732 5.54002 22.6367 5.13494 22.6367 4.7656C22.6367 3.03806 24.3762 1.89431 25.9131 2.60916ZM26.7471 13.2246L31.751 18.2285L24.9838 24.9838L18.2285 31.751L13.2246 26.7471C10.4725 23.9949 8.2207 21.6955 8.2207 21.624C8.2207 21.4691 21.4691 8.22068 21.624 8.22068C21.6955 8.22068 23.9949 10.4724 26.7471 13.2246ZM5.81406 22.8631C6.05234 22.9941 8.67344 25.5318 11.64 28.4984C16.4771 33.3474 17.0371 33.9431 17.1562 34.4197C17.6209 36.2068 16.1436 37.7556 14.3326 37.3863C13.7846 37.2672 13.5344 37.0408 8.29219 31.8344C4.63457 28.1767 2.76406 26.2347 2.60918 25.9131C2.07305 24.7693 2.56152 23.4707 3.75293 22.8392C4.25332 22.5652 5.26602 22.589 5.81406 22.8631ZM31.7033 23.3396C31.9654 23.6017 32.0488 23.8043 32.0488 24.1498C32.0488 24.5787 31.9059 24.7455 28.3197 28.3197C24.7455 31.9058 24.5787 32.0488 24.1498 32.0488C23.4826 32.0488 22.9941 31.5365 22.9941 30.8336V30.3213L26.6637 26.6637L30.3213 22.9941H30.8336C31.2506 22.9941 31.4293 23.0656 31.7033 23.3396ZM35.9447 31.9297C38.1607 33.8597 41.4371 36.7191 43.2361 38.2918L46.4887 41.1392L43.8318 43.7961C42.3664 45.2615 41.1273 46.4529 41.0916 46.441C41.0559 46.4172 38.4586 43.4506 35.3252 39.8525C32.1918 36.2426 29.3324 32.9662 28.975 32.5492L28.3078 31.7986L30.0354 30.0711C30.9766 29.1299 31.7867 28.3674 31.8344 28.3793C31.882 28.4031 33.7287 29.9996 35.9447 31.9297ZM49.2646 43.5459L50.0986 44.3084L47.1797 47.2273L44.2607 50.1463L43.4982 49.2527L42.7357 48.3472L45.5236 45.5594C47.0605 44.0224 48.3354 42.7715 48.3711 42.7715C48.4068 42.7834 48.8119 43.1289 49.2646 43.5459ZM54.8047 48.383C56.282 49.6816 57.6045 50.9207 57.7475 51.1351C58.3789 52.0883 58.5576 52.6601 58.5576 53.8515C58.5576 54.8285 58.51 55.0787 58.2479 55.6387C57.116 58.0453 54.5902 59.1652 52.1836 58.3193C51.2662 57.9976 50.6109 57.4019 48.4902 54.9596C47.3584 53.6609 46.2861 52.4457 46.1193 52.267L45.8215 51.9334L48.8477 48.9072C50.5156 47.2392 51.9334 45.9168 51.993 45.9644C52.0645 46.0002 53.3273 47.0963 54.8047 48.383Z" fill="#5D5FEF"/>
<path d="M20.7781 12.3787C19.9203 13.0101 15.5121 17.5613 15.4287 17.9068C15.2024 18.8123 15.9768 19.5867 16.8941 19.3603C17.0967 19.3127 18.2047 18.3 19.9918 16.5248C22.744 13.7726 22.7559 13.7488 22.7559 13.2365C22.7559 12.8314 22.6844 12.6527 22.4104 12.3787C21.9457 11.914 21.3977 11.914 20.7781 12.3787Z" fill="#5D5FEF"/>
<path d="M12.9029 20.4564C12.4859 20.5398 12.0332 21.1594 12.0332 21.6479C12.0332 22.2436 12.5693 22.7559 13.1889 22.7559C13.7727 22.7559 14.1182 22.5057 14.2969 21.9934C14.4875 21.4096 14.2135 20.7781 13.6535 20.5518C13.4152 20.4564 13.2127 20.385 13.2008 20.385C13.177 20.3969 13.0459 20.4326 12.9029 20.4564Z" fill="#5D5FEF"/>
<path d="M5.39708 46.8699C4.18184 47.2631 3.3002 48.0256 2.75216 49.2051C2.49005 49.7531 2.44239 50.0271 2.44239 50.873C2.44239 51.7666 2.49005 51.981 2.79981 52.6244L3.15723 53.3512L2.65684 53.6728C1.48927 54.3996 0.428915 55.9723 0.131063 57.4019C-0.0476478 58.2359 -0.0357337 59.9516 0.142977 60.3447C0.452743 61.0357 -0.428898 61 16.6797 61C33.7883 61 32.9066 61.0357 33.2164 60.3447C33.3951 59.9516 33.407 58.2359 33.2283 57.4019C32.9305 55.9723 31.8701 54.3996 30.7025 53.6728L30.2022 53.3512L30.5596 52.6244C30.8693 51.981 30.917 51.7666 30.917 50.873C30.917 49.9676 30.8813 49.765 30.5238 49.0621C30.0711 48.1447 29.4277 47.5133 28.4865 47.0725L27.8193 46.7627L16.8584 46.7389C8.03009 46.7269 5.80216 46.7508 5.39708 46.8699ZM27.6406 49.3242C28.1768 49.5982 28.5938 50.2773 28.5938 50.885C28.5938 51.4211 28.1649 52.1121 27.6406 52.41C27.1879 52.6601 27.1641 52.6601 16.6797 52.6601C6.19532 52.6601 6.17149 52.6601 5.71876 52.41C4.50352 51.7309 4.4797 50.0867 5.6711 49.3719L6.13575 49.0859H16.6559C26.9615 49.0859 27.1879 49.0859 27.6406 49.3242ZM28.975 55.4361C30.0354 55.9603 30.7383 56.9135 30.9289 58.1168L31.0123 58.6172H16.6916C2.94278 58.6172 2.38282 58.6053 2.38282 58.4027C2.38282 57.9619 2.75216 56.973 3.08575 56.5084C3.52657 55.9127 4.05079 55.5195 4.8252 55.2574C5.37325 55.0668 6.24298 55.0549 16.8584 55.0787L28.2959 55.1025L28.975 55.4361Z" fill="#5D5FEF"/>
</g>
<defs>
<clipPath id="clip0_6_384">
<rect width="61" height="61" fill="white"/>
</clipPath>
</defs>
</svg>
