<svg width="253" height="257" viewBox="0 0 253 257" fill="none" xmlns="http://www.w3.org/2000/svg">
<path opacity="0.7" fill-rule="evenodd" clip-rule="evenodd" d="M9.5 19C14.7467 19 19 14.7467 19 9.5C19 4.25329 14.7467 0 9.5 0C4.25329 0 0 4.25329 0 9.5C0 14.7467 4.25329 19 9.5 19ZM9.5 87C14.7467 87 19 82.7467 19 77.5C19 72.2533 14.7467 68 9.5 68C4.25329 68 0 72.2533 0 77.5C0 82.7467 4.25329 87 9.5 87ZM19 145.5C19 150.747 14.7467 155 9.5 155C4.25329 155 0 150.747 0 145.5C0 140.253 4.25329 136 9.5 136C14.7467 136 19 140.253 19 145.5ZM9.5 223C14.7467 223 19 218.747 19 213.5C19 208.253 14.7467 204 9.5 204C4.25329 204 0 208.253 0 213.5C0 218.747 4.25329 223 9.5 223ZM19 43.5C19 48.7467 14.7467 53 9.5 53C4.25329 53 0 48.7467 0 43.5C0 38.2533 4.25329 34 9.5 34C14.7467 34 19 38.2533 19 43.5ZM9.5 121C14.7467 121 19 116.747 19 111.5C19 106.253 14.7467 102 9.5 102C4.25329 102 0 106.253 0 111.5C0 116.747 4.25329 121 9.5 121ZM19 179.5C19 184.747 14.7467 189 9.5 189C4.25329 189 0 184.747 0 179.5C0 174.253 4.25329 170 9.5 170C14.7467 170 19 174.253 19 179.5ZM9.5 257C14.7467 257 19 252.747 19 247.5C19 242.253 14.7467 238 9.5 238C4.25329 238 0 242.253 0 247.5C0 252.747 4.25329 257 9.5 257ZM151 9.5C151 14.7467 146.747 19 141.5 19C136.253 19 132 14.7467 132 9.5C132 4.25329 136.253 0 141.5 0C146.747 0 151 4.25329 151 9.5ZM141.5 87C146.747 87 151 82.7467 151 77.5C151 72.2533 146.747 68 141.5 68C136.253 68 132 72.2533 132 77.5C132 82.7467 136.253 87 141.5 87ZM151 145.5C151 150.747 146.747 155 141.5 155C136.253 155 132 150.747 132 145.5C132 140.253 136.253 136 141.5 136C146.747 136 151 140.253 151 145.5ZM141.5 223C146.747 223 151 218.747 151 213.5C151 208.253 146.747 204 141.5 204C136.253 204 132 208.253 132 213.5C132 218.747 136.253 223 141.5 223ZM151 43.5C151 48.7467 146.747 53 141.5 53C136.253 53 132 48.7467 132 43.5C132 38.2533 136.253 34 141.5 34C146.747 34 151 38.2533 151 43.5ZM141.5 121C146.747 121 151 116.747 151 111.5C151 106.253 146.747 102 141.5 102C136.253 102 132 106.253 132 111.5C132 116.747 136.253 121 141.5 121ZM151 179.5C151 184.747 146.747 189 141.5 189C136.253 189 132 184.747 132 179.5C132 174.253 136.253 170 141.5 170C146.747 170 151 174.253 151 179.5ZM141.5 257C146.747 257 151 252.747 151 247.5C151 242.253 146.747 238 141.5 238C136.253 238 132 242.253 132 247.5C132 252.747 136.253 257 141.5 257ZM53 9.5C53 14.7467 48.7467 19 43.5 19C38.2533 19 34 14.7467 34 9.5C34 4.25329 38.2533 0 43.5 0C48.7467 0 53 4.25329 53 9.5ZM43.5 87C48.7467 87 53 82.7467 53 77.5C53 72.2533 48.7467 68 43.5 68C38.2533 68 34 72.2533 34 77.5C34 82.7467 38.2533 87 43.5 87ZM53 145.5C53 150.747 48.7467 155 43.5 155C38.2533 155 34 150.747 34 145.5C34 140.253 38.2533 136 43.5 136C48.7467 136 53 140.253 53 145.5ZM43.5 223C48.7467 223 53 218.747 53 213.5C53 208.253 48.7467 204 43.5 204C38.2533 204 34 208.253 34 213.5C34 218.747 38.2533 223 43.5 223ZM53 43.5C53 48.7467 48.7467 53 43.5 53C38.2533 53 34 48.7467 34 43.5C34 38.2533 38.2533 34 43.5 34C48.7467 34 53 38.2533 53 43.5ZM43.5 121C48.7467 121 53 116.747 53 111.5C53 106.253 48.7467 102 43.5 102C38.2533 102 34 106.253 34 111.5C34 116.747 38.2533 121 43.5 121ZM53 179.5C53 184.747 48.7467 189 43.5 189C38.2533 189 34 184.747 34 179.5C34 174.253 38.2533 170 43.5 170C48.7467 170 53 174.253 53 179.5ZM43.5 257C48.7467 257 53 252.747 53 247.5C53 242.253 48.7467 238 43.5 238C38.2533 238 34 242.253 34 247.5C34 252.747 38.2533 257 43.5 257ZM185 9.5C185 14.7467 180.747 19 175.5 19C170.253 19 166 14.7467 166 9.5C166 4.25329 170.253 0 175.5 0C180.747 0 185 4.25329 185 9.5ZM175.5 87C180.747 87 185 82.7467 185 77.5C185 72.2533 180.747 68 175.5 68C170.253 68 166 72.2533 166 77.5C166 82.7467 170.253 87 175.5 87ZM185 145.5C185 150.747 180.747 155 175.5 155C170.253 155 166 150.747 166 145.5C166 140.253 170.253 136 175.5 136C180.747 136 185 140.253 185 145.5ZM175.5 223C180.747 223 185 218.747 185 213.5C185 208.253 180.747 204 175.5 204C170.253 204 166 208.253 166 213.5C166 218.747 170.253 223 175.5 223ZM185 43.5C185 48.7467 180.747 53 175.5 53C170.253 53 166 48.7467 166 43.5C166 38.2533 170.253 34 175.5 34C180.747 34 185 38.2533 185 43.5ZM175.5 121C180.747 121 185 116.747 185 111.5C185 106.253 180.747 102 175.5 102C170.253 102 166 106.253 166 111.5C166 116.747 170.253 121 175.5 121ZM185 179.5C185 184.747 180.747 189 175.5 189C170.253 189 166 184.747 166 179.5C166 174.253 170.253 170 175.5 170C180.747 170 185 174.253 185 179.5ZM175.5 257C180.747 257 185 252.747 185 247.5C185 242.253 180.747 238 175.5 238C170.253 238 166 242.253 166 247.5C166 252.747 170.253 257 175.5 257ZM87 9.5C87 14.7467 82.7467 19 77.5 19C72.2533 19 68 14.7467 68 9.5C68 4.25329 72.2533 0 77.5 0C82.7467 0 87 4.25329 87 9.5ZM77.5 87C82.7467 87 87 82.7467 87 77.5C87 72.2533 82.7467 68 77.5 68C72.2533 68 68 72.2533 68 77.5C68 82.7467 72.2533 87 77.5 87ZM87 145.5C87 150.747 82.7467 155 77.5 155C72.2533 155 68 150.747 68 145.5C68 140.253 72.2533 136 77.5 136C82.7467 136 87 140.253 87 145.5ZM77.5 223C82.7467 223 87 218.747 87 213.5C87 208.253 82.7467 204 77.5 204C72.2533 204 68 208.253 68 213.5C68 218.747 72.2533 223 77.5 223ZM87 43.5C87 48.7467 82.7467 53 77.5 53C72.2533 53 68 48.7467 68 43.5C68 38.2533 72.2533 34 77.5 34C82.7467 34 87 38.2533 87 43.5ZM77.5 121C82.7467 121 87 116.747 87 111.5C87 106.253 82.7467 102 77.5 102C72.2533 102 68 106.253 68 111.5C68 116.747 72.2533 121 77.5 121ZM87 179.5C87 184.747 82.7467 189 77.5 189C72.2533 189 68 184.747 68 179.5C68 174.253 72.2533 170 77.5 170C82.7467 170 87 174.253 87 179.5ZM77.5 257C82.7467 257 87 252.747 87 247.5C87 242.253 82.7467 238 77.5 238C72.2533 238 68 242.253 68 247.5C68 252.747 72.2533 257 77.5 257ZM219 9.5C219 14.7467 214.747 19 209.5 19C204.253 19 200 14.7467 200 9.5C200 4.25329 204.253 0 209.5 0C214.747 0 219 4.25329 219 9.5ZM209.5 87C214.747 87 219 82.7467 219 77.5C219 72.2533 214.747 68 209.5 68C204.253 68 200 72.2533 200 77.5C200 82.7467 204.253 87 209.5 87ZM219 145.5C219 150.747 214.747 155 209.5 155C204.253 155 200 150.747 200 145.5C200 140.253 204.253 136 209.5 136C214.747 136 219 140.253 219 145.5ZM209.5 223C214.747 223 219 218.747 219 213.5C219 208.253 214.747 204 209.5 204C204.253 204 200 208.253 200 213.5C200 218.747 204.253 223 209.5 223ZM219 43.5C219 48.7467 214.747 53 209.5 53C204.253 53 200 48.7467 200 43.5C200 38.2533 204.253 34 209.5 34C214.747 34 219 38.2533 219 43.5ZM209.5 121C214.747 121 219 116.747 219 111.5C219 106.253 214.747 102 209.5 102C204.253 102 200 106.253 200 111.5C200 116.747 204.253 121 209.5 121ZM219 179.5C219 184.747 214.747 189 209.5 189C204.253 189 200 184.747 200 179.5C200 174.253 204.253 170 209.5 170C214.747 170 219 174.253 219 179.5ZM209.5 257C214.747 257 219 252.747 219 247.5C219 242.253 214.747 238 209.5 238C204.253 238 200 242.253 200 247.5C200 252.747 204.253 257 209.5 257ZM121 9.5C121 14.7467 116.747 19 111.5 19C106.253 19 102 14.7467 102 9.5C102 4.25329 106.253 0 111.5 0C116.747 0 121 4.25329 121 9.5ZM111.5 87C116.747 87 121 82.7467 121 77.5C121 72.2533 116.747 68 111.5 68C106.253 68 102 72.2533 102 77.5C102 82.7467 106.253 87 111.5 87ZM121 145.5C121 150.747 116.747 155 111.5 155C106.253 155 102 150.747 102 145.5C102 140.253 106.253 136 111.5 136C116.747 136 121 140.253 121 145.5ZM111.5 223C116.747 223 121 218.747 121 213.5C121 208.253 116.747 204 111.5 204C106.253 204 102 208.253 102 213.5C102 218.747 106.253 223 111.5 223ZM121 43.5C121 48.7467 116.747 53 111.5 53C106.253 53 102 48.7467 102 43.5C102 38.2533 106.253 34 111.5 34C116.747 34 121 38.2533 121 43.5ZM111.5 121C116.747 121 121 116.747 121 111.5C121 106.253 116.747 102 111.5 102C106.253 102 102 106.253 102 111.5C102 116.747 106.253 121 111.5 121ZM121 179.5C121 184.747 116.747 189 111.5 189C106.253 189 102 184.747 102 179.5C102 174.253 106.253 170 111.5 170C116.747 170 121 174.253 121 179.5ZM111.5 257C116.747 257 121 252.747 121 247.5C121 242.253 116.747 238 111.5 238C106.253 238 102 242.253 102 247.5C102 252.747 106.253 257 111.5 257ZM253 9.5C253 14.7467 248.747 19 243.5 19C238.253 19 234 14.7467 234 9.5C234 4.25329 238.253 0 243.5 0C248.747 0 253 4.25329 253 9.5ZM243.5 87C248.747 87 253 82.7467 253 77.5C253 72.2533 248.747 68 243.5 68C238.253 68 234 72.2533 234 77.5C234 82.7467 238.253 87 243.5 87ZM253 145.5C253 150.747 248.747 155 243.5 155C238.253 155 234 150.747 234 145.5C234 140.253 238.253 136 243.5 136C248.747 136 253 140.253 253 145.5ZM243.5 223C248.747 223 253 218.747 253 213.5C253 208.253 248.747 204 243.5 204C238.253 204 234 208.253 234 213.5C234 218.747 238.253 223 243.5 223ZM253 43.5C253 48.7467 248.747 53 243.5 53C238.253 53 234 48.7467 234 43.5C234 38.2533 238.253 34 243.5 34C248.747 34 253 38.2533 253 43.5ZM243.5 121C248.747 121 253 116.747 253 111.5C253 106.253 248.747 102 243.5 102C238.253 102 234 106.253 234 111.5C234 116.747 238.253 121 243.5 121ZM253 179.5C253 184.747 248.747 189 243.5 189C238.253 189 234 184.747 234 179.5C234 174.253 238.253 170 243.5 170C248.747 170 253 174.253 253 179.5ZM243.5 257C248.747 257 253 252.747 253 247.5C253 242.253 248.747 238 243.5 238C238.253 238 234 242.253 234 247.5C234 252.747 238.253 257 243.5 257Z" fill="url(#paint0_linear_6_16)"/>
<defs>
<linearGradient id="paint0_linear_6_16" x1="0" y1="0" x2="293.5" y2="317.5" gradientUnits="userSpaceOnUse">
<stop stop-color="white"/>
<stop offset="1" stop-color="white" stop-opacity="0"/>
</linearGradient>
</defs>
</svg>
