<svg width="253" height="127" viewBox="0 0 253 127" fill="none" xmlns="http://www.w3.org/2000/svg">
<path opacity="0.7" fill-rule="evenodd" clip-rule="evenodd" d="M243.5 238C238.253 238 234 242.253 234 247.5C234 252.747 238.253 257 243.5 257C248.747 257 253 252.747 253 247.5C253 242.253 248.747 238 243.5 238ZM243.5 102C238.253 102 234 106.253 234 111.5C234 116.747 238.253 121 243.5 121C248.747 121 253 116.747 253 111.5C253 106.253 248.747 102 243.5 102ZM234 43.5C234 38.2533 238.253 34 243.5 34C248.747 34 253 38.2533 253 43.5C253 48.7467 248.747 53 243.5 53C238.253 53 234 48.7467 234 43.5ZM243.5 68C238.253 68 234 72.2533 234 77.5C234 82.7467 238.253 87 243.5 87C248.747 87 253 82.7467 253 77.5C253 72.2533 248.747 68 243.5 68ZM234 9.5C234 4.2533 238.253 1.2892e-06 243.5 8.30516e-07C248.747 3.71835e-07 253 4.2533 253 9.5C253 14.7467 248.747 19 243.5 19C238.253 19 234 14.7467 234 9.5ZM111.5 238C106.253 238 102 242.253 102 247.5C102 252.747 106.253 257 111.5 257C116.747 257 121 252.747 121 247.5C121 242.253 116.747 238 111.5 238ZM102 111.5C102 106.253 106.253 102 111.5 102C116.747 102 121 106.253 121 111.5C121 116.747 116.747 121 111.5 121C106.253 121 102 116.747 102 111.5ZM111.5 34C106.253 34 102 38.2533 102 43.5C102 48.7467 106.253 53 111.5 53C116.747 53 121 48.7467 121 43.5C121 38.2533 116.747 34 111.5 34ZM102 77.5C102 72.2533 106.253 68 111.5 68C116.747 68 121 72.2533 121 77.5C121 82.7467 116.747 87 111.5 87C106.253 87 102 82.7467 102 77.5ZM111.5 1.23703e-05C106.253 1.2829e-05 102 4.25331 102 9.50001C102 14.7467 106.253 19 111.5 19C116.747 19 121 14.7467 121 9.50001C121 4.25331 116.747 1.19116e-05 111.5 1.23703e-05ZM200 247.5C200 242.253 204.253 238 209.5 238C214.747 238 219 242.253 219 247.5C219 252.747 214.747 257 209.5 257C204.253 257 200 252.747 200 247.5ZM209.5 102C204.253 102 200 106.253 200 111.5C200 116.747 204.253 121 209.5 121C214.747 121 219 116.747 219 111.5C219 106.253 214.747 102 209.5 102ZM200 43.5C200 38.2533 204.253 34 209.5 34C214.747 34 219 38.2533 219 43.5C219 48.7467 214.747 53 209.5 53C204.253 53 200 48.7467 200 43.5ZM209.5 68C204.253 68 200 72.2533 200 77.5C200 82.7467 204.253 87 209.5 87C214.747 87 219 82.7467 219 77.5C219 72.2533 214.747 68 209.5 68ZM200 9.5C200 4.2533 204.253 4.26157e-06 209.5 3.80289e-06C214.747 3.34421e-06 219 4.2533 219 9.5C219 14.7467 214.747 19 209.5 19C204.253 19 200 14.7467 200 9.5ZM77.5 238C72.2533 238 68 242.253 68 247.5C68 252.747 72.2533 257 77.5 257C82.7467 257 87 252.747 87 247.5C87 242.253 82.7467 238 77.5 238ZM68 111.5C68 106.253 72.2533 102 77.5 102C82.7467 102 87 106.253 87 111.5C87 116.747 82.7467 121 77.5 121C72.2533 121 68 116.747 68 111.5ZM77.5 34C72.2533 34 68 38.2533 68 43.5C68 48.7467 72.2533 53 77.5 53C82.7467 53 87 48.7467 87 43.5C87 38.2533 82.7467 34 77.5 34ZM68 77.5C68 72.2533 72.2533 68 77.5 68C82.7467 68 87 72.2533 87 77.5C87 82.7467 82.7467 87 77.5 87C72.2533 87 68 82.7467 68 77.5ZM77.5 1.53427e-05C72.2533 1.58014e-05 68 4.25331 68 9.50002C68 14.7467 72.2533 19 77.5 19C82.7467 19 87 14.7467 87 9.50001C87 4.25331 82.7467 1.4884e-05 77.5 1.53427e-05ZM166 247.5C166 242.253 170.253 238 175.5 238C180.747 238 185 242.253 185 247.5C185 252.747 180.747 257 175.5 257C170.253 257 166 252.747 166 247.5ZM175.5 102C170.253 102 166 106.253 166 111.5C166 116.747 170.253 121 175.5 121C180.747 121 185 116.747 185 111.5C185 106.253 180.747 102 175.5 102ZM166 43.5C166 38.2533 170.253 34 175.5 34C180.747 34 185 38.2533 185 43.5C185 48.7467 180.747 53 175.5 53C170.253 53 166 48.7467 166 43.5ZM175.5 68C170.253 68 166 72.2533 166 77.5C166 82.7467 170.253 87 175.5 87C180.747 87 185 82.7467 185 77.5C185 72.2533 180.747 68 175.5 68ZM166 9.50001C166 4.2533 170.253 7.23395e-06 175.5 6.77527e-06C180.747 6.31658e-06 185 4.2533 185 9.50001C185 14.7467 180.747 19 175.5 19C170.253 19 166 14.7467 166 9.50001ZM43.5 238C38.2533 238 34 242.253 34 247.5C34 252.747 38.2533 257 43.5 257C48.7467 257 53 252.747 53 247.5C53 242.253 48.7467 238 43.5 238ZM34 111.5C34 106.253 38.2533 102 43.5 102C48.7467 102 53 106.253 53 111.5C53 116.747 48.7467 121 43.5 121C38.2533 121 34 116.747 34 111.5ZM43.5 34C38.2533 34 34 38.2533 34 43.5C34 48.7467 38.2533 53 43.5 53C48.7467 53 53 48.7467 53 43.5C53 38.2533 48.7467 34 43.5 34ZM34 77.5C34 72.2533 38.2533 68 43.5 68C48.7467 68 53 72.2533 53 77.5C53 82.7467 48.7467 87 43.5 87C38.2533 87 34 82.7467 34 77.5ZM43.5 1.83151e-05C38.2533 1.87738e-05 34 4.25332 34 9.50002C34 14.7467 38.2533 19 43.5 19C48.7467 19 53 14.7467 53 9.50002C53 4.25331 48.7467 1.78564e-05 43.5 1.83151e-05ZM132 247.5C132 242.253 136.253 238 141.5 238C146.747 238 151 242.253 151 247.5C151 252.747 146.747 257 141.5 257C136.253 257 132 252.747 132 247.5ZM141.5 102C136.253 102 132 106.253 132 111.5C132 116.747 136.253 121 141.5 121C146.747 121 151 116.747 151 111.5C151 106.253 146.747 102 141.5 102ZM132 43.5C132 38.2533 136.253 34 141.5 34C146.747 34 151 38.2533 151 43.5C151 48.7467 146.747 53 141.5 53C136.253 53 132 48.7467 132 43.5ZM141.5 68C136.253 68 132 72.2533 132 77.5C132 82.7467 136.253 87 141.5 87C146.747 87 151 82.7467 151 77.5C151 72.2533 146.747 68 141.5 68ZM132 9.50001C132 4.25331 136.253 1.02063e-05 141.5 9.74764e-06C146.747 9.28896e-06 151 4.2533 151 9.50001C151 14.7467 146.747 19 141.5 19C136.253 19 132 14.7467 132 9.50001ZM9.5 238C4.25329 238 -1.2892e-06 242.253 -8.30516e-07 247.5C-3.71835e-07 252.747 4.2533 257 9.5 257C14.7467 257 19 252.747 19 247.5C19 242.253 14.7467 238 9.5 238ZM-1.272e-05 111.5C-1.31787e-05 106.253 4.25328 102 9.49999 102C14.7467 102 19 106.253 19 111.5C19 116.747 14.7467 121 9.49999 121C4.25328 121 -1.22613e-05 116.747 -1.272e-05 111.5ZM9.49998 34C4.25328 34 -1.91234e-05 38.2533 -1.86648e-05 43.5C-1.82061e-05 48.7467 4.25328 53 9.49998 53C14.7467 53 19 48.7467 19 43.5C19 38.2533 14.7467 34 9.49998 34ZM-1.56924e-05 77.5C-1.61511e-05 72.2533 4.25328 68 9.49998 68C14.7467 68 19 72.2533 19 77.5C19 82.7467 14.7467 87 9.49999 87C4.25328 87 -1.52337e-05 82.7467 -1.56924e-05 77.5ZM9.49998 2.12874e-05C4.25327 2.17461e-05 -2.20958e-05 4.25332 -2.16371e-05 9.50002C-2.11785e-05 14.7467 4.25328 19 9.49998 19C14.7467 19 19 14.7467 19 9.50002C19 4.25332 14.7467 2.08288e-05 9.49998 2.12874e-05Z" fill="url(#paint0_linear_6_81)"/>
<defs>
<linearGradient id="paint0_linear_6_81" x1="253" y1="257" x2="-40.5" y2="-60.5" gradientUnits="userSpaceOnUse">
<stop stop-color="white"/>
<stop offset="1" stop-color="white" stop-opacity="0"/>
</linearGradient>
</defs>
</svg>
