<svg width="61" height="61" viewBox="0 0 61 61" fill="none" xmlns="http://www.w3.org/2000/svg">
<g clip-path="url(#clip0_6_390)">
<path d="M1.25098 0.166798C0.750585 0.381252 0.142968 1.10801 0.0595695 1.57266C0.0238274 1.78711 0.0119133 13.4748 0.0238274 27.5334L0.0595695 53.101L0.405077 53.5418C0.869726 54.1613 1.53691 54.4473 2.53769 54.4473H3.33594V55.2217C3.33594 56.0676 3.55039 56.7229 3.96738 57.1637C4.39629 57.6164 4.64648 57.7117 5.71875 57.7832L6.73144 57.8428L6.79101 58.7959C6.8625 59.9277 7.11269 60.3686 7.89902 60.7498C8.41133 61 8.45898 61 22.7678 61H37.1123L41.4848 56.6156L45.8691 52.2432V48.9311V45.6309H46.9176C47.7873 45.6309 48.0137 45.5951 48.1686 45.4164C48.4545 45.0947 48.4307 44.4037 48.1209 44.1297C47.8826 43.9152 47.5848 43.9033 42.2115 43.8676L36.5643 43.8318L36.6357 43.5697C36.7668 43.1289 37.3387 42.4975 37.9463 42.1162L38.5182 41.7588H45.0352H51.5521L52.1359 42.1162C52.6363 42.426 53.4941 43.4387 53.4941 43.7246C53.4941 43.7723 53.1486 43.8438 52.7316 43.8676C51.7785 43.9271 51.4688 44.1535 51.4688 44.7969C51.4688 45.5355 51.6832 45.6309 53.3988 45.6309C55.2693 45.6309 55.4361 45.5355 55.4123 44.5467C55.3766 42.7357 54.3043 41.175 52.5529 40.341C51.7785 39.9836 51.7309 39.9717 49.7174 39.9359L47.6562 39.8883V30.0711V20.2539H50.9922C52.827 20.2539 54.3281 20.2777 54.3281 20.3016C54.3281 20.3254 53.4227 22.8512 52.3027 25.9131C50.0986 31.9773 50.0867 32.0131 50.5037 33.3475C51.433 36.3379 54.6498 37.851 57.6641 36.7072C59.3678 36.052 60.726 34.2529 60.9523 32.3467C61.0357 31.7152 60.9523 31.477 58.7244 25.3531C57.2232 21.207 56.3297 18.9076 56.151 18.7289C55.9008 18.4787 55.8174 18.4668 53.5656 18.4668H51.2543L51.1709 17.9783C51.1232 17.7162 50.873 17.0729 50.6228 16.5486C49.7293 14.7854 48.2043 13.6178 46.2027 13.177L45.8811 13.1055L45.8453 10.5082L45.8096 7.89902L45.4641 7.4582C44.9994 6.83867 44.3322 6.55273 43.3553 6.55273H42.5689L42.5094 5.67109C42.4021 4.09844 41.7469 3.45508 40.1385 3.35977L39.1973 3.3002V2.85938C39.1973 2.10879 38.9709 1.19141 38.7088 0.810158C38.5658 0.607616 38.2322 0.345509 37.9582 0.226368C37.4936 0.0119133 36.7787 0 19.5391 0.0119133C4.98008 0.0119133 1.53691 0.0357437 1.25098 0.166798ZM37.291 2.01348C37.3506 2.14453 37.4102 2.49004 37.4102 2.78789V3.33594L21.1117 3.35977L4.82519 3.39551L4.38437 3.66953C4.14609 3.82441 3.82441 4.1461 3.66953 4.38438L3.39551 4.8252V9.97207C3.39551 15.6193 3.37168 15.4049 4.11035 15.5598C4.37246 15.6074 4.56309 15.5598 4.80137 15.3691L5.12305 15.1189V10.258C5.12305 6.64805 5.15879 5.37324 5.26601 5.26602C5.46855 5.06348 40.4006 5.06348 40.6031 5.26602C40.6865 5.34941 40.7461 5.67109 40.7461 5.98086V6.55273L24.4477 6.57656L8.14922 6.6123L7.66074 6.93399C6.70762 7.56543 6.79101 5.20645 6.79101 32.0369V56.008L5.99277 55.9723L5.18262 55.9365L5.12305 37.3148C5.06348 19.0506 5.06348 18.6813 4.83711 18.5145C4.44394 18.2404 3.86016 18.3 3.58613 18.6574L3.33594 18.9791V35.8256V52.6721L2.59726 52.6363L1.84668 52.6006L1.81094 27.3428C1.79902 13.451 1.81094 2.01348 1.84668 1.93008C1.88242 1.82285 5.54004 1.78711 19.5271 1.78711C36.8383 1.78711 37.16 1.78711 37.291 2.01348ZM44.0582 10.7465L44.082 13.0816L43.4029 13.2842C41.2227 13.9156 39.5428 15.5955 38.9947 17.6805L38.7803 18.4668H36.4928C34.2887 18.4668 34.1934 18.4787 33.9074 18.7289C33.5262 19.0863 29.0703 31.2982 29.0703 32.0012C29.0822 34.3721 31.1314 36.6477 33.6334 37.0527C36.5881 37.5174 39.5309 35.2537 39.7453 32.3348L39.8049 31.5127L37.851 26.1514C36.7787 23.1967 35.8613 20.6709 35.8137 20.516L35.7303 20.2539H39.0662H42.4141V30.083V39.9121H40.5674C39.0066 39.9121 38.6016 39.9479 37.982 40.1623C36.2068 40.758 34.9678 42.2115 34.6699 44.0463C34.5508 44.785 34.5984 45.0947 34.8844 45.4164C35.0512 45.6189 35.4324 45.6309 39.5785 45.6309H44.082V48.252V50.873H40.9605C39.1734 50.873 37.6365 50.9326 37.3863 50.9922C36.8145 51.159 36.2307 51.6475 36.0281 52.1479C35.8971 52.4457 35.8613 53.3273 35.8613 55.877V59.2129L22.2555 59.1891L8.63769 59.1533L8.60195 33.8955C8.59004 20.0037 8.60195 8.56621 8.63769 8.48281C8.67344 8.36367 12.2834 8.33984 26.3539 8.36367L44.0225 8.39941L44.0582 10.7465ZM46.9771 15.3096C48.0732 15.8576 49.0145 16.9775 49.3838 18.1928L49.4553 18.4668H45.0471C41.592 18.4668 40.627 18.4311 40.627 18.3119C40.627 18.0617 41.2107 16.9061 41.5324 16.5129C42.0209 15.941 42.974 15.2738 43.5816 15.0713C43.951 14.9521 44.499 14.9045 45.2139 14.9283C46.1074 14.9641 46.3934 15.0236 46.9771 15.3096ZM45.8691 30.083V39.9121H45.0352H44.2012V30.083V20.2539H45.0352H45.8691V30.083ZM36.0639 26.485L37.6246 30.7979L36.0281 30.8336C35.1465 30.8455 33.7168 30.8455 32.8352 30.8336L31.2506 30.7979L32.8113 26.485C33.6691 24.1021 34.3959 22.1602 34.4316 22.1602C34.4674 22.1602 35.1941 24.1021 36.0639 26.485ZM57.2947 26.6279L58.8078 30.7979L55.6625 30.8336C53.923 30.8455 52.4934 30.8455 52.4695 30.8217C52.4457 30.7979 53.1367 28.8439 54.0064 26.4611C55.0549 23.5898 55.6148 22.1959 55.6863 22.3031C55.734 22.3984 56.4607 24.3404 57.2947 26.6279ZM37.8152 32.9066C37.3982 34.3006 35.9566 35.3133 34.4316 35.3133C33.5738 35.3133 32.6088 34.9439 32.0369 34.4078C31.6557 34.0623 31.1553 33.2879 31.0361 32.9066L30.9646 32.6445H34.4316H37.8986L37.8152 32.9066ZM59.0938 32.6922C59.0938 32.9424 58.6172 33.7406 58.1883 34.1934C56.8896 35.5754 54.8881 35.6945 53.2916 34.4793C52.9104 34.1814 52.1836 33.0854 52.1836 32.7875C52.1836 32.6803 52.958 32.6445 55.6387 32.6445C57.5449 32.6445 59.0938 32.6684 59.0938 32.6922ZM40.2576 55.2574L37.708 57.8547L37.6723 55.3527C37.6484 53.4346 37.6842 52.8389 37.7914 52.7555C37.8748 52.7078 39.0424 52.6602 40.3768 52.6602H42.7953L40.2576 55.2574Z" fill="#EF5DA8"/>
<path d="M13.8322 16.3937C13.5463 16.7631 13.5225 16.9061 13.725 17.335C13.8084 17.5256 14.0109 17.6805 14.285 17.7639C14.5709 17.8353 17.3111 17.8711 22.3746 17.8473L30.0473 17.8115L30.2736 17.5256C30.5715 17.1682 30.5596 16.6201 30.2617 16.3223C30.0234 16.084 29.8686 16.084 22.0529 16.084H14.0705L13.8322 16.3937Z" fill="#EF5DA8"/>
<path d="M13.8203 23.3158C13.5105 23.709 13.5701 24.2571 13.9514 24.5787C14.1896 24.7694 14.6305 24.7813 20.7424 24.7574C27.9027 24.7217 27.5572 24.7574 27.7121 24.0069C27.7598 23.7448 27.7121 23.5541 27.5215 23.3158L27.2713 22.9942H20.6709H14.0705L13.8203 23.3158Z" fill="#EF5DA8"/>
<path d="M13.9275 30.1307C13.725 30.2855 13.6535 30.4762 13.6535 30.7979C13.6535 31.1195 13.725 31.3102 13.9275 31.465C14.1897 31.6795 14.5113 31.6914 19.6582 31.6914C24.8051 31.6914 25.1268 31.6795 25.3889 31.465C25.7344 31.191 25.7582 30.5 25.4365 30.1426C25.2221 29.9043 25.1148 29.9043 19.7178 29.9043C14.5113 29.9043 14.1897 29.9162 13.9275 30.1307Z" fill="#EF5DA8"/>
<path d="M13.9514 37.017C13.5701 37.3387 13.5105 37.8867 13.8203 38.2799L14.0705 38.6016H19.7297C25.2221 38.6016 25.3889 38.5896 25.6152 38.3633C25.7582 38.2203 25.8535 37.9701 25.8535 37.708C25.8535 37.4459 25.7582 37.1957 25.6152 37.0527C25.3889 36.8264 25.2221 36.8145 19.7893 36.8145C14.6424 36.8145 14.1896 36.8264 13.9514 37.017Z" fill="#EF5DA8"/>
<path d="M14.1777 43.8557C13.7965 44.0106 13.7012 44.1655 13.7012 44.6897C13.7012 45.5594 13.2246 45.5117 21.9576 45.5117C28.8916 45.5117 29.7852 45.4879 29.952 45.3211C30.4166 44.8684 30.2855 44.0582 29.7137 43.8438C29.3086 43.6889 14.5828 43.7008 14.1777 43.8557Z" fill="#EF5DA8"/>
<path d="M13.9037 50.9684C13.582 51.3258 13.6416 52.0049 14.0229 52.3028C14.3326 52.541 14.3684 52.5529 21.9576 52.5172L29.5707 52.4815L29.7971 52.1955C30.0711 51.8619 30.083 51.3735 29.8328 51.016L29.6541 50.7539H21.8742C14.4875 50.7539 14.0824 50.7658 13.9037 50.9684Z" fill="#EF5DA8"/>
</g>
<defs>
<clipPath id="clip0_6_390">
<rect width="61" height="61" fill="white"/>
</clipPath>
</defs>
</svg>
