<svg width="61" height="61" viewBox="0 0 61 61" fill="none" xmlns="http://www.w3.org/2000/svg">
<g clip-path="url(#clip0_6_371)">
<path d="M9.94824 0.119141C8.79258 0.405079 7.7084 1.28672 7.18418 2.3709C6.88633 2.97852 6.8625 3.18105 6.81484 4.78945L6.76719 6.52891L5.13496 6.57656C3.6457 6.6123 3.46699 6.64805 2.8832 6.9459C2.04922 7.38672 1.3582 8.10156 0.965039 8.92363L0.655273 9.59082V33.7764V57.9619L0.988867 58.6291C1.37012 59.4273 2.27559 60.309 3.06191 60.6783L3.63379 60.9404L26.0322 60.9762C51.4211 61.0119 48.8 61.1191 50.6348 59.9158C54.9357 57.0803 58.7602 50.9684 59.9992 44.9518C60.3686 43.1766 60.4639 40.21 60.1898 39.4117C59.892 38.5777 59.2725 38.1607 54.3043 35.4801C51.6594 34.0504 49.4672 32.8828 49.4195 32.8828C49.36 32.8828 49.3242 28.0219 49.3242 22.0887C49.3242 15.0713 49.2766 11.223 49.2051 11.0801C49.1098 10.8895 42.5094 5.20644 37.4936 0.976955L36.3379 0L23.3158 0.0119133C16.1674 0.0238304 10.1508 0.0595703 9.94824 0.119141ZM34.6699 5.28984C34.6699 6.88633 34.7295 8.48281 34.7891 8.82832C35.075 10.3533 36.1234 11.7234 37.5055 12.3668L38.1846 12.6885L42.5332 12.7481L46.8818 12.8076V22.8035V32.8113L42.0924 35.3967C39.4594 36.8264 37.1123 38.1369 36.874 38.3156C36.1473 38.8756 35.9328 39.4117 35.8852 40.9605C35.7779 44.0344 36.6715 47.7158 38.3156 51.016L38.8398 52.0645H32.99H27.1402L26.7352 52.4695C26.473 52.7316 26.3301 52.9937 26.3301 53.1844C26.3301 53.6014 26.6279 54.1732 26.9139 54.3281C27.0688 54.3996 29.4396 54.4473 33.7049 54.4473H40.2576L41.0797 55.5553C41.5443 56.1629 42.3426 57.0922 42.8787 57.6402L43.8438 58.6172L23.983 58.5934L4.11035 58.5576L3.74102 58.2955C2.91895 57.6998 2.97852 59.7371 2.97852 33.7525C2.97852 11.6639 2.99043 10.2818 3.19297 9.88867C3.3002 9.6623 3.57422 9.35254 3.80059 9.20957C4.15801 8.97129 4.34863 8.93555 5.49238 8.93555H6.79102L6.81484 30.1664L6.85059 51.4092L7.18418 52.0883C7.60117 52.9461 8.33984 53.6848 9.17383 54.0779L9.8291 54.3877L13.5582 54.4234L17.2873 54.4592L17.6328 54.1018C18.1809 53.5537 18.1094 52.6363 17.4779 52.2789C17.2873 52.1717 16.2389 52.1121 13.7369 52.0645C10.4605 52.0049 10.2461 51.993 9.92441 51.7547C9.7457 51.6236 9.49551 51.3258 9.37637 51.0994C9.18574 50.7182 9.17383 49.3838 9.19766 27.1045L9.2334 3.51465L9.49551 3.14531C10.0674 2.34707 9.26914 2.38281 22.6129 2.38281H34.6699V5.28984ZM41.1869 7.26758L44.7492 10.3057L41.8303 10.3414C39.0543 10.3652 38.8994 10.3533 38.3871 10.115C38.0416 9.93633 37.7437 9.67422 37.5174 9.3168L37.1719 8.76875V6.33828C37.1719 3.95547 37.1719 3.90781 37.3982 4.06269C37.5293 4.15801 39.233 5.59961 41.1869 7.26758ZM52.958 37.4816C55.5791 38.8875 57.7951 40.1385 57.8785 40.2457C58.2955 40.7818 57.8189 44.4037 57.0088 46.8818C55.4361 51.6951 52.1717 56.2105 48.8119 58.2359L48.1566 58.6291L47.6801 58.3908C45.7143 57.39 43.2004 54.7213 41.4967 51.85C39.4832 48.4426 38.4348 45.19 38.2799 41.8541L38.2084 40.2814L38.673 40.0074C39.5904 39.4594 47.9541 34.932 48.0732 34.9201C48.1447 34.9201 50.3369 36.0639 52.958 37.4816Z" fill="#A752EA"/>
<path d="M14.6901 9.75762C14.0229 10.1746 13.9395 11.0682 14.5352 11.5805L14.8926 11.9141H22.6487C27.736 11.9141 30.4762 11.8664 30.6311 11.7949C31.2625 11.4494 31.3578 10.4129 30.786 9.87676L30.4762 9.59082L22.7797 9.55508C15.3334 9.53125 15.0594 9.53125 14.6901 9.75762Z" fill="#A752EA"/>
<path d="M14.4994 15.9053C13.9156 16.489 14.0586 17.4183 14.7734 17.7758C15.1666 17.9783 16.0482 17.9902 28.0338 17.9902C41.7826 17.9902 41.4967 18.0021 41.8064 17.4183C42.0447 16.9656 41.9613 16.2984 41.6158 15.941L41.2941 15.6074H28.0457H14.8092L14.4994 15.9053Z" fill="#A752EA"/>
<path d="M14.6662 21.7551C14.5113 21.8623 14.3207 22.1363 14.2254 22.3508C14.0824 22.6963 14.0824 22.8154 14.2254 23.161C14.5709 23.9711 14.4398 23.9592 19.8369 23.9235L24.6859 23.8877L24.9719 23.5541C25.3889 23.0656 25.365 22.3746 24.9123 21.91L24.5668 21.5645H19.7535C15.5002 21.5645 14.9164 21.5883 14.6662 21.7551Z" fill="#A752EA"/>
<path d="M31.6795 21.9099C31.2268 22.3746 31.2029 23.0656 31.6199 23.5541L31.9059 23.8877L36.5762 23.9234L41.2346 23.9592L41.5801 23.6017C42.0805 23.1133 42.0805 22.4103 41.592 21.9099L41.2465 21.5644H36.6357H32.025L31.6795 21.9099Z" fill="#A752EA"/>
<path d="M14.69 27.7598C14.0348 28.1529 13.9514 29.0465 14.4994 29.6064L14.8092 29.9043H28.0457H41.2941L41.6158 29.5707C41.9613 29.2133 42.0447 28.5461 41.8183 28.1053C41.4848 27.4977 41.9851 27.5215 28.0338 27.5215C15.3691 27.5215 15.0594 27.5334 14.69 27.7598Z" fill="#A752EA"/>
<path d="M14.4994 33.8955C13.9514 34.4555 14.0348 35.349 14.69 35.7422C15.0117 35.9447 15.2857 35.9805 16.4771 35.9805C18.0617 35.9805 18.4549 35.8494 18.7766 35.2418C18.9314 34.932 18.9434 34.7891 18.8361 34.4197C18.6217 33.693 18.3476 33.5977 16.4652 33.5977C14.8449 33.5977 14.7973 33.6096 14.4994 33.8955Z" fill="#A752EA"/>
<path d="M22.8631 33.9432C22.3865 34.4198 22.3865 35.0035 22.8631 35.5278L23.2086 35.9209L28.4627 35.9567C34.2649 35.9924 34.2291 35.9924 34.6223 35.2418C34.7772 34.9321 34.7891 34.7891 34.6818 34.4198C34.4317 33.5739 34.5984 33.5977 28.5938 33.5977H23.2086L22.8631 33.9432Z" fill="#A752EA"/>
<path d="M14.6662 39.7453C14.5113 39.8525 14.3207 40.1265 14.2254 40.341C14.0824 40.6865 14.0824 40.8057 14.2254 41.1512C14.5709 41.9851 14.0943 41.9375 22.6605 41.9375H30.3809L30.7621 41.592C31.0838 41.306 31.1553 41.1631 31.1553 40.7461C31.1553 40.3291 31.0838 40.1861 30.7621 39.9002L30.3809 39.5547H22.6605C15.7266 39.5547 14.9164 39.5785 14.6662 39.7453Z" fill="#A752EA"/>
<path d="M21.4572 52.3742C20.5756 53.1129 21.0521 54.4354 22.1959 54.4473C23.3992 54.4473 23.8162 52.7912 22.7559 52.2432C22.2555 51.9811 21.8742 52.0168 21.4572 52.3742Z" fill="#A752EA"/>
<path d="M51.2305 42.5928C51.0637 42.6881 50.0033 43.7246 48.8715 44.916L46.7984 47.0605L45.893 46.2266C45.3926 45.7619 44.8564 45.3568 44.7135 45.3211C43.9986 45.1424 43.248 45.7023 43.248 46.4053C43.248 46.6436 43.2957 46.9295 43.3672 47.0486C43.4268 47.1678 44.1178 47.8588 44.9041 48.5975C47.001 50.5395 46.6555 50.6348 50.0391 47.1678C51.5164 45.6547 52.7793 44.2965 52.8627 44.1535C53.4465 43.1408 52.267 42.009 51.2305 42.5928Z" fill="#A752EA"/>
</g>
<defs>
<clipPath id="clip0_6_371">
<rect width="61" height="61" fill="white"/>
</clipPath>
</defs>
</svg>
