<svg xmlns="http://www.w3.org/2000/svg">
    <symbol id="protected" width="61" height="61" viewBox="0 0 61 61" fill="none"
        xmlns="http://www.w3.org/2000/svg">
        <g clip-path="url(#clip0_6_371)">
            <path
                d="M9.94824 0.119141C8.79258 0.405079 7.7084 1.28672 7.18418 2.3709C6.88633 2.97852 6.8625 3.18105 6.81484 4.78945L6.76719 6.52891L5.13496 6.57656C3.6457 6.6123 3.46699 6.64805 2.8832 6.9459C2.04922 7.38672 1.3582 8.10156 0.965039 8.92363L0.655273 9.59082V33.7764V57.9619L0.988867 58.6291C1.37012 59.4273 2.27559 60.309 3.06191 60.6783L3.63379 60.9404L26.0322 60.9762C51.4211 61.0119 48.8 61.1191 50.6348 59.9158C54.9357 57.0803 58.7602 50.9684 59.9992 44.9518C60.3686 43.1766 60.4639 40.21 60.1898 39.4117C59.892 38.5777 59.2725 38.1607 54.3043 35.4801C51.6594 34.0504 49.4672 32.8828 49.4195 32.8828C49.36 32.8828 49.3242 28.0219 49.3242 22.0887C49.3242 15.0713 49.2766 11.223 49.2051 11.0801C49.1098 10.8895 42.5094 5.20644 37.4936 0.976955L36.3379 0L23.3158 0.0119133C16.1674 0.0238304 10.1508 0.0595703 9.94824 0.119141ZM34.6699 5.28984C34.6699 6.88633 34.7295 8.48281 34.7891 8.82832C35.075 10.3533 36.1234 11.7234 37.5055 12.3668L38.1846 12.6885L42.5332 12.7481L46.8818 12.8076V22.8035V32.8113L42.0924 35.3967C39.4594 36.8264 37.1123 38.1369 36.874 38.3156C36.1473 38.8756 35.9328 39.4117 35.8852 40.9605C35.7779 44.0344 36.6715 47.7158 38.3156 51.016L38.8398 52.0645H32.99H27.1402L26.7352 52.4695C26.473 52.7316 26.3301 52.9937 26.3301 53.1844C26.3301 53.6014 26.6279 54.1732 26.9139 54.3281C27.0688 54.3996 29.4396 54.4473 33.7049 54.4473H40.2576L41.0797 55.5553C41.5443 56.1629 42.3426 57.0922 42.8787 57.6402L43.8438 58.6172L23.983 58.5934L4.11035 58.5576L3.74102 58.2955C2.91895 57.6998 2.97852 59.7371 2.97852 33.7525C2.97852 11.6639 2.99043 10.2818 3.19297 9.88867C3.3002 9.6623 3.57422 9.35254 3.80059 9.20957C4.15801 8.97129 4.34863 8.93555 5.49238 8.93555H6.79102L6.81484 30.1664L6.85059 51.4092L7.18418 52.0883C7.60117 52.9461 8.33984 53.6848 9.17383 54.0779L9.8291 54.3877L13.5582 54.4234L17.2873 54.4592L17.6328 54.1018C18.1809 53.5537 18.1094 52.6363 17.4779 52.2789C17.2873 52.1717 16.2389 52.1121 13.7369 52.0645C10.4605 52.0049 10.2461 51.993 9.92441 51.7547C9.7457 51.6236 9.49551 51.3258 9.37637 51.0994C9.18574 50.7182 9.17383 49.3838 9.19766 27.1045L9.2334 3.51465L9.49551 3.14531C10.0674 2.34707 9.26914 2.38281 22.6129 2.38281H34.6699V5.28984ZM41.1869 7.26758L44.7492 10.3057L41.8303 10.3414C39.0543 10.3652 38.8994 10.3533 38.3871 10.115C38.0416 9.93633 37.7437 9.67422 37.5174 9.3168L37.1719 8.76875V6.33828C37.1719 3.95547 37.1719 3.90781 37.3982 4.06269C37.5293 4.15801 39.233 5.59961 41.1869 7.26758ZM52.958 37.4816C55.5791 38.8875 57.7951 40.1385 57.8785 40.2457C58.2955 40.7818 57.8189 44.4037 57.0088 46.8818C55.4361 51.6951 52.1717 56.2105 48.8119 58.2359L48.1566 58.6291L47.6801 58.3908C45.7143 57.39 43.2004 54.7213 41.4967 51.85C39.4832 48.4426 38.4348 45.19 38.2799 41.8541L38.2084 40.2814L38.673 40.0074C39.5904 39.4594 47.9541 34.932 48.0732 34.9201C48.1447 34.9201 50.3369 36.0639 52.958 37.4816Z"
                fill="#A752EA" />
            <path
                d="M14.6901 9.75762C14.0229 10.1746 13.9395 11.0682 14.5352 11.5805L14.8926 11.9141H22.6487C27.736 11.9141 30.4762 11.8664 30.6311 11.7949C31.2625 11.4494 31.3578 10.4129 30.786 9.87676L30.4762 9.59082L22.7797 9.55508C15.3334 9.53125 15.0594 9.53125 14.6901 9.75762Z"
                fill="#A752EA" />
            <path
                d="M14.4994 15.9053C13.9156 16.489 14.0586 17.4183 14.7734 17.7758C15.1666 17.9783 16.0482 17.9902 28.0338 17.9902C41.7826 17.9902 41.4967 18.0021 41.8064 17.4183C42.0447 16.9656 41.9613 16.2984 41.6158 15.941L41.2941 15.6074H28.0457H14.8092L14.4994 15.9053Z"
                fill="#A752EA" />
            <path
                d="M14.6662 21.7551C14.5113 21.8623 14.3207 22.1363 14.2254 22.3508C14.0824 22.6963 14.0824 22.8154 14.2254 23.161C14.5709 23.9711 14.4398 23.9592 19.8369 23.9235L24.6859 23.8877L24.9719 23.5541C25.3889 23.0656 25.365 22.3746 24.9123 21.91L24.5668 21.5645H19.7535C15.5002 21.5645 14.9164 21.5883 14.6662 21.7551Z"
                fill="#A752EA" />
            <path
                d="M31.6795 21.9099C31.2268 22.3746 31.2029 23.0656 31.6199 23.5541L31.9059 23.8877L36.5762 23.9234L41.2346 23.9592L41.5801 23.6017C42.0805 23.1133 42.0805 22.4103 41.592 21.9099L41.2465 21.5644H36.6357H32.025L31.6795 21.9099Z"
                fill="#A752EA" />
            <path
                d="M14.69 27.7598C14.0348 28.1529 13.9514 29.0465 14.4994 29.6064L14.8092 29.9043H28.0457H41.2941L41.6158 29.5707C41.9613 29.2133 42.0447 28.5461 41.8183 28.1053C41.4848 27.4977 41.9851 27.5215 28.0338 27.5215C15.3691 27.5215 15.0594 27.5334 14.69 27.7598Z"
                fill="#A752EA" />
            <path
                d="M14.4994 33.8955C13.9514 34.4555 14.0348 35.349 14.69 35.7422C15.0117 35.9447 15.2857 35.9805 16.4771 35.9805C18.0617 35.9805 18.4549 35.8494 18.7766 35.2418C18.9314 34.932 18.9434 34.7891 18.8361 34.4197C18.6217 33.693 18.3476 33.5977 16.4652 33.5977C14.8449 33.5977 14.7973 33.6096 14.4994 33.8955Z"
                fill="#A752EA" />
            <path
                d="M22.8631 33.9432C22.3865 34.4198 22.3865 35.0035 22.8631 35.5278L23.2086 35.9209L28.4627 35.9567C34.2649 35.9924 34.2291 35.9924 34.6223 35.2418C34.7772 34.9321 34.7891 34.7891 34.6818 34.4198C34.4317 33.5739 34.5984 33.5977 28.5938 33.5977H23.2086L22.8631 33.9432Z"
                fill="#A752EA" />
            <path
                d="M14.6662 39.7453C14.5113 39.8525 14.3207 40.1265 14.2254 40.341C14.0824 40.6865 14.0824 40.8057 14.2254 41.1512C14.5709 41.9851 14.0943 41.9375 22.6605 41.9375H30.3809L30.7621 41.592C31.0838 41.306 31.1553 41.1631 31.1553 40.7461C31.1553 40.3291 31.0838 40.1861 30.7621 39.9002L30.3809 39.5547H22.6605C15.7266 39.5547 14.9164 39.5785 14.6662 39.7453Z"
                fill="#A752EA" />
            <path
                d="M21.4572 52.3742C20.5756 53.1129 21.0521 54.4354 22.1959 54.4473C23.3992 54.4473 23.8162 52.7912 22.7559 52.2432C22.2555 51.9811 21.8742 52.0168 21.4572 52.3742Z"
                fill="#A752EA" />
            <path
                d="M51.2305 42.5928C51.0637 42.6881 50.0033 43.7246 48.8715 44.916L46.7984 47.0605L45.893 46.2266C45.3926 45.7619 44.8564 45.3568 44.7135 45.3211C43.9986 45.1424 43.248 45.7023 43.248 46.4053C43.248 46.6436 43.2957 46.9295 43.3672 47.0486C43.4268 47.1678 44.1178 47.8588 44.9041 48.5975C47.001 50.5395 46.6555 50.6348 50.0391 47.1678C51.5164 45.6547 52.7793 44.2965 52.8627 44.1535C53.4465 43.1408 52.267 42.009 51.2305 42.5928Z"
                fill="#A752EA" />
        </g>
        <defs>
            <clipPath id="clip0_6_371">
                <rect width="61" height="61" fill="white" />
            </clipPath>
        </defs>
    </symbol>
    <symbol id="auction" width="61" height="61" viewBox="0 0 61 61" fill="none"
        xmlns="http://www.w3.org/2000/svg">
        <g clip-path="url(#clip0_6_384)">
            <path
                d="M23.7328 0.190601C22.4223 0.53611 21.2309 1.56072 20.6352 2.83553C20.3492 3.43123 20.3135 3.66951 20.3016 4.81326L20.2896 6.09998L13.177 13.2127L6.07617 20.3135H4.80137C3.65762 20.3135 3.44316 20.3492 2.83555 20.6351C2.0373 21.0045 1.08418 21.8623 0.655273 22.5771C0.285937 23.2086 0 24.2928 0 25.0314C0 25.7701 0.38125 26.9853 0.82207 27.6406C1.02461 27.9385 3.63379 30.6191 6.63613 33.6096C12.5693 39.5189 12.6289 39.5666 14.142 39.7691C15.81 39.9836 17.2635 39.4594 18.3834 38.2441C19.3127 37.2433 19.5867 36.5047 19.5867 34.9439L19.5986 33.7287L20.242 33.0734L20.8973 32.4181L21.0879 32.7398C21.4334 33.2998 22.3865 34.0504 23.018 34.2648C24.0545 34.6103 25.4604 34.3601 26.3896 33.6691C26.616 33.5023 27.1402 34.0742 37.6961 46.2027C43.7842 53.1963 49.0383 59.1414 49.3719 59.4035C52.2193 61.7029 56.2463 61.4765 58.8555 58.8555C61.6434 56.0676 61.7148 51.8023 58.9984 48.9787C58.5576 48.526 54.9834 45.3449 51.0518 41.9256C32.8352 26.0799 33.4785 26.6517 33.6691 26.3896C34.3959 25.3769 34.6223 24.1021 34.2648 23.0179C34.0504 22.3865 33.2998 21.4334 32.7398 21.0879L32.4182 20.8972L33.0734 20.242L33.7287 19.5986H34.8844C36.4094 19.5986 37.2791 19.2888 38.2561 18.3715C39.8287 16.9179 40.2576 14.7138 39.3641 12.7719C39.09 12.1881 38.2561 11.2945 33.4309 6.46931C29.5111 2.54959 27.6525 0.774391 27.2832 0.583767C26.1037 -2.28882e-05 24.9123 -0.131077 23.7328 0.190601ZM25.9131 2.60916C26.2348 2.76404 28.1768 4.63455 31.8344 8.29217C37.0408 13.5344 37.2672 13.7845 37.3863 14.3326C37.7557 16.1435 36.2068 17.6209 34.4197 17.1562C33.9432 17.0371 33.3475 16.4771 28.4984 11.64C25.5318 8.67342 22.9941 6.05232 22.8631 5.81404C22.732 5.54002 22.6367 5.13494 22.6367 4.7656C22.6367 3.03806 24.3762 1.89431 25.9131 2.60916ZM26.7471 13.2246L31.751 18.2285L24.9838 24.9838L18.2285 31.751L13.2246 26.7471C10.4725 23.9949 8.2207 21.6955 8.2207 21.624C8.2207 21.4691 21.4691 8.22068 21.624 8.22068C21.6955 8.22068 23.9949 10.4724 26.7471 13.2246ZM5.81406 22.8631C6.05234 22.9941 8.67344 25.5318 11.64 28.4984C16.4771 33.3474 17.0371 33.9431 17.1562 34.4197C17.6209 36.2068 16.1436 37.7556 14.3326 37.3863C13.7846 37.2672 13.5344 37.0408 8.29219 31.8344C4.63457 28.1767 2.76406 26.2347 2.60918 25.9131C2.07305 24.7693 2.56152 23.4707 3.75293 22.8392C4.25332 22.5652 5.26602 22.589 5.81406 22.8631ZM31.7033 23.3396C31.9654 23.6017 32.0488 23.8043 32.0488 24.1498C32.0488 24.5787 31.9059 24.7455 28.3197 28.3197C24.7455 31.9058 24.5787 32.0488 24.1498 32.0488C23.4826 32.0488 22.9941 31.5365 22.9941 30.8336V30.3213L26.6637 26.6637L30.3213 22.9941H30.8336C31.2506 22.9941 31.4293 23.0656 31.7033 23.3396ZM35.9447 31.9297C38.1607 33.8597 41.4371 36.7191 43.2361 38.2918L46.4887 41.1392L43.8318 43.7961C42.3664 45.2615 41.1273 46.4529 41.0916 46.441C41.0559 46.4172 38.4586 43.4506 35.3252 39.8525C32.1918 36.2426 29.3324 32.9662 28.975 32.5492L28.3078 31.7986L30.0354 30.0711C30.9766 29.1299 31.7867 28.3674 31.8344 28.3793C31.882 28.4031 33.7287 29.9996 35.9447 31.9297ZM49.2646 43.5459L50.0986 44.3084L47.1797 47.2273L44.2607 50.1463L43.4982 49.2527L42.7357 48.3472L45.5236 45.5594C47.0605 44.0224 48.3354 42.7715 48.3711 42.7715C48.4068 42.7834 48.8119 43.1289 49.2646 43.5459ZM54.8047 48.383C56.282 49.6816 57.6045 50.9207 57.7475 51.1351C58.3789 52.0883 58.5576 52.6601 58.5576 53.8515C58.5576 54.8285 58.51 55.0787 58.2479 55.6387C57.116 58.0453 54.5902 59.1652 52.1836 58.3193C51.2662 57.9976 50.6109 57.4019 48.4902 54.9596C47.3584 53.6609 46.2861 52.4457 46.1193 52.267L45.8215 51.9334L48.8477 48.9072C50.5156 47.2392 51.9334 45.9168 51.993 45.9644C52.0645 46.0002 53.3273 47.0963 54.8047 48.383Z"
                fill="#5D5FEF" />
            <path
                d="M20.7781 12.3787C19.9203 13.0101 15.5121 17.5613 15.4287 17.9068C15.2024 18.8123 15.9768 19.5867 16.8941 19.3603C17.0967 19.3127 18.2047 18.3 19.9918 16.5248C22.744 13.7726 22.7559 13.7488 22.7559 13.2365C22.7559 12.8314 22.6844 12.6527 22.4104 12.3787C21.9457 11.914 21.3977 11.914 20.7781 12.3787Z"
                fill="#5D5FEF" />
            <path
                d="M12.9029 20.4564C12.4859 20.5398 12.0332 21.1594 12.0332 21.6479C12.0332 22.2436 12.5693 22.7559 13.1889 22.7559C13.7727 22.7559 14.1182 22.5057 14.2969 21.9934C14.4875 21.4096 14.2135 20.7781 13.6535 20.5518C13.4152 20.4564 13.2127 20.385 13.2008 20.385C13.177 20.3969 13.0459 20.4326 12.9029 20.4564Z"
                fill="#5D5FEF" />
            <path
                d="M5.39708 46.8699C4.18184 47.2631 3.3002 48.0256 2.75216 49.2051C2.49005 49.7531 2.44239 50.0271 2.44239 50.873C2.44239 51.7666 2.49005 51.981 2.79981 52.6244L3.15723 53.3512L2.65684 53.6728C1.48927 54.3996 0.428915 55.9723 0.131063 57.4019C-0.0476478 58.2359 -0.0357337 59.9516 0.142977 60.3447C0.452743 61.0357 -0.428898 61 16.6797 61C33.7883 61 32.9066 61.0357 33.2164 60.3447C33.3951 59.9516 33.407 58.2359 33.2283 57.4019C32.9305 55.9723 31.8701 54.3996 30.7025 53.6728L30.2022 53.3512L30.5596 52.6244C30.8693 51.981 30.917 51.7666 30.917 50.873C30.917 49.9676 30.8813 49.765 30.5238 49.0621C30.0711 48.1447 29.4277 47.5133 28.4865 47.0725L27.8193 46.7627L16.8584 46.7389C8.03009 46.7269 5.80216 46.7508 5.39708 46.8699ZM27.6406 49.3242C28.1768 49.5982 28.5938 50.2773 28.5938 50.885C28.5938 51.4211 28.1649 52.1121 27.6406 52.41C27.1879 52.6601 27.1641 52.6601 16.6797 52.6601C6.19532 52.6601 6.17149 52.6601 5.71876 52.41C4.50352 51.7309 4.4797 50.0867 5.6711 49.3719L6.13575 49.0859H16.6559C26.9615 49.0859 27.1879 49.0859 27.6406 49.3242ZM28.975 55.4361C30.0354 55.9603 30.7383 56.9135 30.9289 58.1168L31.0123 58.6172H16.6916C2.94278 58.6172 2.38282 58.6053 2.38282 58.4027C2.38282 57.9619 2.75216 56.973 3.08575 56.5084C3.52657 55.9127 4.05079 55.5195 4.8252 55.2574C5.37325 55.0668 6.24298 55.0549 16.8584 55.0787L28.2959 55.1025L28.975 55.4361Z"
                fill="#5D5FEF" />
        </g>
        <defs>
            <clipPath id="clip0_6_384">
                <rect width="61" height="61" fill="white" />
            </clipPath>
        </defs>
    </symbol>
    <symbol id="legal-document" width="61" height="61" viewBox="0 0 61 61" fill="none"
        xmlns="http://www.w3.org/2000/svg">
        <g clip-path="url(#clip0_6_390)">
            <path
                d="M1.25098 0.166798C0.750585 0.381252 0.142968 1.10801 0.0595695 1.57266C0.0238274 1.78711 0.0119133 13.4748 0.0238274 27.5334L0.0595695 53.101L0.405077 53.5418C0.869726 54.1613 1.53691 54.4473 2.53769 54.4473H3.33594V55.2217C3.33594 56.0676 3.55039 56.7229 3.96738 57.1637C4.39629 57.6164 4.64648 57.7117 5.71875 57.7832L6.73144 57.8428L6.79101 58.7959C6.8625 59.9277 7.11269 60.3686 7.89902 60.7498C8.41133 61 8.45898 61 22.7678 61H37.1123L41.4848 56.6156L45.8691 52.2432V48.9311V45.6309H46.9176C47.7873 45.6309 48.0137 45.5951 48.1686 45.4164C48.4545 45.0947 48.4307 44.4037 48.1209 44.1297C47.8826 43.9152 47.5848 43.9033 42.2115 43.8676L36.5643 43.8318L36.6357 43.5697C36.7668 43.1289 37.3387 42.4975 37.9463 42.1162L38.5182 41.7588H45.0352H51.5521L52.1359 42.1162C52.6363 42.426 53.4941 43.4387 53.4941 43.7246C53.4941 43.7723 53.1486 43.8438 52.7316 43.8676C51.7785 43.9271 51.4688 44.1535 51.4688 44.7969C51.4688 45.5355 51.6832 45.6309 53.3988 45.6309C55.2693 45.6309 55.4361 45.5355 55.4123 44.5467C55.3766 42.7357 54.3043 41.175 52.5529 40.341C51.7785 39.9836 51.7309 39.9717 49.7174 39.9359L47.6562 39.8883V30.0711V20.2539H50.9922C52.827 20.2539 54.3281 20.2777 54.3281 20.3016C54.3281 20.3254 53.4227 22.8512 52.3027 25.9131C50.0986 31.9773 50.0867 32.0131 50.5037 33.3475C51.433 36.3379 54.6498 37.851 57.6641 36.7072C59.3678 36.052 60.726 34.2529 60.9523 32.3467C61.0357 31.7152 60.9523 31.477 58.7244 25.3531C57.2232 21.207 56.3297 18.9076 56.151 18.7289C55.9008 18.4787 55.8174 18.4668 53.5656 18.4668H51.2543L51.1709 17.9783C51.1232 17.7162 50.873 17.0729 50.6228 16.5486C49.7293 14.7854 48.2043 13.6178 46.2027 13.177L45.8811 13.1055L45.8453 10.5082L45.8096 7.89902L45.4641 7.4582C44.9994 6.83867 44.3322 6.55273 43.3553 6.55273H42.5689L42.5094 5.67109C42.4021 4.09844 41.7469 3.45508 40.1385 3.35977L39.1973 3.3002V2.85938C39.1973 2.10879 38.9709 1.19141 38.7088 0.810158C38.5658 0.607616 38.2322 0.345509 37.9582 0.226368C37.4936 0.0119133 36.7787 0 19.5391 0.0119133C4.98008 0.0119133 1.53691 0.0357437 1.25098 0.166798ZM37.291 2.01348C37.3506 2.14453 37.4102 2.49004 37.4102 2.78789V3.33594L21.1117 3.35977L4.82519 3.39551L4.38437 3.66953C4.14609 3.82441 3.82441 4.1461 3.66953 4.38438L3.39551 4.8252V9.97207C3.39551 15.6193 3.37168 15.4049 4.11035 15.5598C4.37246 15.6074 4.56309 15.5598 4.80137 15.3691L5.12305 15.1189V10.258C5.12305 6.64805 5.15879 5.37324 5.26601 5.26602C5.46855 5.06348 40.4006 5.06348 40.6031 5.26602C40.6865 5.34941 40.7461 5.67109 40.7461 5.98086V6.55273L24.4477 6.57656L8.14922 6.6123L7.66074 6.93399C6.70762 7.56543 6.79101 5.20645 6.79101 32.0369V56.008L5.99277 55.9723L5.18262 55.9365L5.12305 37.3148C5.06348 19.0506 5.06348 18.6813 4.83711 18.5145C4.44394 18.2404 3.86016 18.3 3.58613 18.6574L3.33594 18.9791V35.8256V52.6721L2.59726 52.6363L1.84668 52.6006L1.81094 27.3428C1.79902 13.451 1.81094 2.01348 1.84668 1.93008C1.88242 1.82285 5.54004 1.78711 19.5271 1.78711C36.8383 1.78711 37.16 1.78711 37.291 2.01348ZM44.0582 10.7465L44.082 13.0816L43.4029 13.2842C41.2227 13.9156 39.5428 15.5955 38.9947 17.6805L38.7803 18.4668H36.4928C34.2887 18.4668 34.1934 18.4787 33.9074 18.7289C33.5262 19.0863 29.0703 31.2982 29.0703 32.0012C29.0822 34.3721 31.1314 36.6477 33.6334 37.0527C36.5881 37.5174 39.5309 35.2537 39.7453 32.3348L39.8049 31.5127L37.851 26.1514C36.7787 23.1967 35.8613 20.6709 35.8137 20.516L35.7303 20.2539H39.0662H42.4141V30.083V39.9121H40.5674C39.0066 39.9121 38.6016 39.9479 37.982 40.1623C36.2068 40.758 34.9678 42.2115 34.6699 44.0463C34.5508 44.785 34.5984 45.0947 34.8844 45.4164C35.0512 45.6189 35.4324 45.6309 39.5785 45.6309H44.082V48.252V50.873H40.9605C39.1734 50.873 37.6365 50.9326 37.3863 50.9922C36.8145 51.159 36.2307 51.6475 36.0281 52.1479C35.8971 52.4457 35.8613 53.3273 35.8613 55.877V59.2129L22.2555 59.1891L8.63769 59.1533L8.60195 33.8955C8.59004 20.0037 8.60195 8.56621 8.63769 8.48281C8.67344 8.36367 12.2834 8.33984 26.3539 8.36367L44.0225 8.39941L44.0582 10.7465ZM46.9771 15.3096C48.0732 15.8576 49.0145 16.9775 49.3838 18.1928L49.4553 18.4668H45.0471C41.592 18.4668 40.627 18.4311 40.627 18.3119C40.627 18.0617 41.2107 16.9061 41.5324 16.5129C42.0209 15.941 42.974 15.2738 43.5816 15.0713C43.951 14.9521 44.499 14.9045 45.2139 14.9283C46.1074 14.9641 46.3934 15.0236 46.9771 15.3096ZM45.8691 30.083V39.9121H45.0352H44.2012V30.083V20.2539H45.0352H45.8691V30.083ZM36.0639 26.485L37.6246 30.7979L36.0281 30.8336C35.1465 30.8455 33.7168 30.8455 32.8352 30.8336L31.2506 30.7979L32.8113 26.485C33.6691 24.1021 34.3959 22.1602 34.4316 22.1602C34.4674 22.1602 35.1941 24.1021 36.0639 26.485ZM57.2947 26.6279L58.8078 30.7979L55.6625 30.8336C53.923 30.8455 52.4934 30.8455 52.4695 30.8217C52.4457 30.7979 53.1367 28.8439 54.0064 26.4611C55.0549 23.5898 55.6148 22.1959 55.6863 22.3031C55.734 22.3984 56.4607 24.3404 57.2947 26.6279ZM37.8152 32.9066C37.3982 34.3006 35.9566 35.3133 34.4316 35.3133C33.5738 35.3133 32.6088 34.9439 32.0369 34.4078C31.6557 34.0623 31.1553 33.2879 31.0361 32.9066L30.9646 32.6445H34.4316H37.8986L37.8152 32.9066ZM59.0938 32.6922C59.0938 32.9424 58.6172 33.7406 58.1883 34.1934C56.8896 35.5754 54.8881 35.6945 53.2916 34.4793C52.9104 34.1814 52.1836 33.0854 52.1836 32.7875C52.1836 32.6803 52.958 32.6445 55.6387 32.6445C57.5449 32.6445 59.0938 32.6684 59.0938 32.6922ZM40.2576 55.2574L37.708 57.8547L37.6723 55.3527C37.6484 53.4346 37.6842 52.8389 37.7914 52.7555C37.8748 52.7078 39.0424 52.6602 40.3768 52.6602H42.7953L40.2576 55.2574Z"
                fill="#EF5DA8" />
            <path
                d="M13.8322 16.3937C13.5463 16.7631 13.5225 16.9061 13.725 17.335C13.8084 17.5256 14.0109 17.6805 14.285 17.7639C14.5709 17.8353 17.3111 17.8711 22.3746 17.8473L30.0473 17.8115L30.2736 17.5256C30.5715 17.1682 30.5596 16.6201 30.2617 16.3223C30.0234 16.084 29.8686 16.084 22.0529 16.084H14.0705L13.8322 16.3937Z"
                fill="#EF5DA8" />
            <path
                d="M13.8203 23.3158C13.5105 23.709 13.5701 24.2571 13.9514 24.5787C14.1896 24.7694 14.6305 24.7813 20.7424 24.7574C27.9027 24.7217 27.5572 24.7574 27.7121 24.0069C27.7598 23.7448 27.7121 23.5541 27.5215 23.3158L27.2713 22.9942H20.6709H14.0705L13.8203 23.3158Z"
                fill="#EF5DA8" />
            <path
                d="M13.9275 30.1307C13.725 30.2855 13.6535 30.4762 13.6535 30.7979C13.6535 31.1195 13.725 31.3102 13.9275 31.465C14.1897 31.6795 14.5113 31.6914 19.6582 31.6914C24.8051 31.6914 25.1268 31.6795 25.3889 31.465C25.7344 31.191 25.7582 30.5 25.4365 30.1426C25.2221 29.9043 25.1148 29.9043 19.7178 29.9043C14.5113 29.9043 14.1897 29.9162 13.9275 30.1307Z"
                fill="#EF5DA8" />
            <path
                d="M13.9514 37.017C13.5701 37.3387 13.5105 37.8867 13.8203 38.2799L14.0705 38.6016H19.7297C25.2221 38.6016 25.3889 38.5896 25.6152 38.3633C25.7582 38.2203 25.8535 37.9701 25.8535 37.708C25.8535 37.4459 25.7582 37.1957 25.6152 37.0527C25.3889 36.8264 25.2221 36.8145 19.7893 36.8145C14.6424 36.8145 14.1896 36.8264 13.9514 37.017Z"
                fill="#EF5DA8" />
            <path
                d="M14.1777 43.8557C13.7965 44.0106 13.7012 44.1655 13.7012 44.6897C13.7012 45.5594 13.2246 45.5117 21.9576 45.5117C28.8916 45.5117 29.7852 45.4879 29.952 45.3211C30.4166 44.8684 30.2855 44.0582 29.7137 43.8438C29.3086 43.6889 14.5828 43.7008 14.1777 43.8557Z"
                fill="#EF5DA8" />
            <path
                d="M13.9037 50.9684C13.582 51.3258 13.6416 52.0049 14.0229 52.3028C14.3326 52.541 14.3684 52.5529 21.9576 52.5172L29.5707 52.4815L29.7971 52.1955C30.0711 51.8619 30.083 51.3735 29.8328 51.016L29.6541 50.7539H21.8742C14.4875 50.7539 14.0824 50.7658 13.9037 50.9684Z"
                fill="#EF5DA8" />
        </g>
        <defs>
            <clipPath id="clip0_6_390">
                <rect width="61" height="61" fill="white" />
            </clipPath>
        </defs>
    </symbol>
    <symbol id="fb" width="7" height="14" viewBox="0 0 7 14" fill="none"
        xmlns="http://www.w3.org/2000/svg">
        <g clip-path="url(#clip0_9_59)">
            <path
                d="M1.78669 14V7.43079H-0.000244141V5.06556H1.78669V3.04535C1.78669 1.45785 2.84225 0 5.27446 0C6.25923 0 6.98742 0.09177 6.98742 0.09177L6.93004 2.30049C6.93004 2.30049 6.1874 2.29347 5.377 2.29347C4.49991 2.29347 4.35939 2.68638 4.35939 3.33851V5.06556H6.99976L6.88487 7.43079H4.35939V14H1.78669Z"
                fill="white" />
        </g>
        <defs>
            <clipPath id="clip0_9_59">
                <rect width="7" height="14" fill="white" transform="translate(-0.000244141)" />
            </clipPath>
        </defs>
    </symbol>
    <symbol id="tw" width="18" height="14" viewBox="0 0 18 14" fill="none"
        xmlns="http://www.w3.org/2000/svg">
        <g clip-path="url(#clip0_9_55)">
            <path
                d="M17.9998 1.70478C17.3258 1.98925 16.6108 2.17597 15.8788 2.25875C16.6413 1.82334 17.2268 1.13386 17.5025 0.312345C16.7776 0.722154 15.9845 1.01089 15.1575 1.16608C14.4838 0.482355 13.5241 0.0550537 12.4619 0.0550537C10.4224 0.0550537 8.76891 1.63029 8.76891 3.57314C8.76891 3.84892 8.80161 4.1174 8.86454 4.37496C5.79539 4.22819 3.0743 2.82759 1.25286 0.699053C0.935043 1.21866 0.752934 1.82307 0.752934 2.46774C0.752934 3.68835 1.40494 4.76515 2.39579 5.39608C1.80934 5.37859 1.2358 5.22769 0.723051 4.95599C0.72284 4.97073 0.72284 4.98546 0.72284 5.00027C0.72284 6.70485 1.99578 8.12682 3.68511 8.45003C3.1413 8.59092 2.57088 8.61154 2.01743 8.51031C2.48733 9.90803 3.85118 10.9251 5.46711 10.9536C4.20324 11.8972 2.61087 12.4597 0.880762 12.4597C0.582637 12.4597 0.288731 12.443 -0.000183105 12.4105C1.63409 13.4087 3.57521 13.9911 5.66068 13.9911C12.4534 13.9911 16.1678 8.63022 16.1678 3.98115C16.1678 3.82855 16.1642 3.67683 16.1571 3.52598C16.88 3.02807 17.5041 2.41135 17.9998 1.70478Z"
                fill="white" />
        </g>
        <defs>
            <clipPath id="clip0_9_55">
                <rect width="18" height="14" fill="white" />
            </clipPath>
        </defs>
    </symbol>
    <symbol id="li" width="16" height="15" viewBox="0 0 16 15" fill="none"
        xmlns="http://www.w3.org/2000/svg">
        <g clip-path="url(#clip0_9_51)">
            <path
                d="M3.63281 15V4.87947H0.202508V15H3.63281ZM1.9181 3.49686C3.11431 3.49686 3.85889 2.71972 3.85889 1.74856C3.8366 0.755504 3.11436 -6.10352e-05 1.9408 -6.10352e-05C0.767434 -6.10352e-05 0.00012207 0.755519 0.00012207 1.74856C0.00012207 2.71977 0.74452 3.49686 1.89571 3.49686H1.918H1.9181ZM5.53147 15H8.96177V9.34818C8.96177 9.0457 8.98406 8.74354 9.07465 8.52732C9.32263 7.92298 9.88705 7.29706 10.8346 7.29706C12.0759 7.29706 12.5725 8.22514 12.5725 9.58564V14.9999H16.0026V9.19689C16.0026 6.08827 14.3103 4.64187 12.0533 4.64187C10.2028 4.64187 9.39033 5.6562 8.93895 6.34705H8.96185V4.87926H5.53155C5.57657 5.82891 5.53155 14.9997 5.53155 14.9997L5.53147 15Z"
                fill="white" />
        </g>
        <defs>
            <clipPath id="clip0_9_51">
                <rect width="16" height="15" fill="white" />
            </clipPath>
        </defs>
    </symbol>
    <symbol id="phone" width="12" height="12" viewBox="0 0 12 12" fill="none"
        xmlns="http://www.w3.org/2000/svg">
        <path
            d="M11.2481 12C4.8494 12.0091 -0.00683822 7.09462 7.22807e-06 0.751882C7.22807e-06 0.337669 0.335794 0 0.750007 0H2.72953C3.1012 0 3.41695 0.273097 3.47153 0.640747C3.60233 1.5219 3.85888 2.37973 4.23336 3.18803L4.31043 3.35438C4.4176 3.58568 4.34496 3.86051 4.13751 4.00865C3.52447 4.44644 3.29019 5.32767 3.76777 6.01527C4.36708 6.87813 5.12254 7.63343 5.9852 8.23246C6.67277 8.70991 7.55385 8.47566 7.99163 7.86273C8.13988 7.65517 8.41486 7.5825 8.6463 7.68971L8.81189 7.76642C9.62024 8.14087 10.4781 8.39743 11.3594 8.52822C11.727 8.58278 12 8.89851 12 9.2702V11.25C12 11.6642 11.6634 12 11.2492 12L11.2481 12Z"
            fill="currentColor" />
    </symbol>
    <symbol id="adress" width="12" height="14" viewBox="0 0 12 14" fill="none"
        xmlns="http://www.w3.org/2000/svg">
        <path
            d="M6 13.7501C5.0527 12.9421 4.17464 12.0562 3.375 11.1018C2.175 9.6686 0.750001 7.5341 0.750001 5.5001C0.748937 3.37576 2.02819 1.46014 3.9908 0.647147C5.95342 -0.165848 8.21255 0.284029 9.714 1.78685C10.7013 2.7698 11.2544 4.10689 11.25 5.5001C11.25 7.5341 9.825 9.6686 8.625 11.1018C7.82536 12.0562 6.9473 12.9421 6 13.7501ZM6 3.2501C5.19615 3.2501 4.45337 3.67895 4.05144 4.3751C3.64952 5.07125 3.64952 5.92895 4.05144 6.6251C4.45337 7.32125 5.19615 7.7501 6 7.7501C7.24264 7.7501 8.25 6.74274 8.25 5.5001C8.25 4.25746 7.24264 3.2501 6 3.2501Z"
            fill="currentColor" />
    </symbol>
    <svg id="hours" width="16" height="16" viewBox="0 0 16 16" fill="none"
        xmlns="http://www.w3.org/2000/svg">
        <path
            d="M8 15.5C3.85786 15.5 0.5 12.1421 0.5 8C0.5 3.85786 3.85786 0.5 8 0.5C12.1421 0.5 15.5 3.85786 15.5 8C15.4955 12.1403 12.1403 15.4955 8 15.5ZM8 2C4.68629 2 2 4.68629 2 8C2 11.3137 4.68629 14 8 14C11.3137 14 14 11.3137 14 8C13.9963 4.68783 11.3122 2.00372 8 2ZM11.75 8.75H7.25V4.25H8.75V7.25H11.75V8.75Z"
            fill="currentColor" />
    </svg>
    <symbol id="mail" width="16" height="12" viewBox="0 0 16 12" fill="none"
        xmlns="http://www.w3.org/2000/svg">
        <path
            d="M14 12H2C1.17157 12 0.5 11.3284 0.5 10.5V1.43475C0.534956 0.631911 1.1964 -0.000759282 2 6.83933e-07H14C14.8284 6.83933e-07 15.5 0.671574 15.5 1.5V10.5C15.5 11.3284 14.8284 12 14 12ZM2 2.901V10.5H14V2.901L8 6.9L2 2.901ZM2.6 1.5L8 5.1L13.4 1.5H2.6Z"
            fill="currentColor" />
    </symbol>
    <symbol id="we-arrow" width="27" height="16" viewBox="0 0 27 16" fill="none"
        xmlns="http://www.w3.org/2000/svg">
        <path
            d="M26.7071 8.70711C27.0976 8.31658 27.0976 7.68342 26.7071 7.2929L20.3431 0.928934C19.9526 0.53841 19.3195 0.538409 18.9289 0.928934C18.5384 1.31946 18.5384 1.95262 18.9289 2.34315L24.5858 8L18.9289 13.6569C18.5384 14.0474 18.5384 14.6805 18.9289 15.0711C19.3195 15.4616 19.9526 15.4616 20.3431 15.0711L26.7071 8.70711ZM-8.74228e-08 9L26 9L26 7L8.74228e-08 7L-8.74228e-08 9Z"
            fill="#5D5FEF" />
    </symbol>
    <symbol id="arrow-menu" width="8" height="6" viewBox="0 0 8 6" fill="none"
        xmlns="http://www.w3.org/2000/svg">
        <path d="M4 6L0.535898 -1.75695e-07L7.4641 4.29987e-07L4 6Z" fill="currentColor" />
    </symbol>
    <symbol id="burger" width="24" height="16" viewBox="0 0 24 16" fill="none"
        xmlns="http://www.w3.org/2000/svg">
        <path
            d="M24 16H12V13.3333H24V16ZM24 9.33333H0V6.66667H24V9.33333ZM24 2.66667H0V0H24V2.66667Z"
            fill="#EA7552" />
    </symbol>
    <symbol id="burger-x" width="19" height="19" viewBox="0 0 19 19" fill="none"
        xmlns="http://www.w3.org/2000/svg">
        <path
            d="M16.7205 0.458252L9.50004 7.67867L2.27962 0.458252L0.458374 2.2795L7.67879 9.49992L0.458374 16.7203L2.27962 18.5416L9.50004 11.3212L16.7205 18.5416L18.5417 16.7203L11.3213 9.49992L18.5417 2.2795L16.7205 0.458252Z"
            fill="#EA7552" />
    </symbol>
    <symbol id="tel-mobile" width="16" height="16" viewBox="0 0 16 16" fill="none"
        xmlns="http://www.w3.org/2000/svg">
        <path
            d="M14.9975 16C6.46587 16.0121 -0.00911762 9.4595 9.63742e-06 1.00251C9.63742e-06 0.450225 0.447725 0 1.00001 0H3.63937C4.13494 0 4.55593 0.364129 4.6287 0.854329C4.80311 2.0292 5.14517 3.17297 5.64448 4.2507L5.74725 4.4725C5.89013 4.78091 5.79328 5.14734 5.51668 5.34487C4.6993 5.92859 4.38692 7.10355 5.0237 8.02036C5.82278 9.17084 6.83005 10.1779 7.98027 10.9766C8.89702 11.6132 10.0718 11.3009 10.6555 10.4836C10.8532 10.2069 11.2198 10.11 11.5284 10.2529L11.7492 10.3552C12.827 10.8545 13.9708 11.1966 15.1458 11.371C15.636 11.4437 16 11.8647 16 12.3603V15C16 15.5523 15.5512 16 14.9989 16L14.9975 16Z"
            fill="white" />
    </symbol>
</svg>